<svg aria-hidden="true" style="position: absolute; width: 0; height: 0; overflow: hidden;" version="1.1" xmlns="http://www.w3.org/2000/svg" xmlns:xlink="http://www.w3.org/1999/xlink">
<defs>

<!-- <symbol id="icon-logo" viewBox="0 0 35 32">
<path d="M17.484 0c2.086 0 3.872 2.599 4.613 6.285 3.101-2.035 6.157-2.585 7.619-1.123 1.473 1.473 0.902 4.566-1.173 7.692 3.681 0.742 6.276 2.528 6.276 4.612-0 2.438-3.551 4.467-8.24 4.896 2.397 3.316 3.136 6.706 1.573 8.27-1.945 1.945-6.715 0.327-10.655-3.613-0.075-0.075-0.15-0.151-0.224-0.227-3.914 3.846-8.6 5.407-10.524 3.483-1.51-1.51-0.872-4.723 1.332-7.928-4.61-0.459-8.082-2.47-8.082-4.881 0-2.083 2.591-3.867 6.268-4.61-2.076-3.126-2.646-6.221-1.173-7.694 1.483-1.483 4.609-0.894 7.757 1.216 0.73-3.736 2.529-6.378 4.632-6.378z"></path>
</symbol> -->

<symbol id="icon-logo" viewBox="0 0 35 32">
  <defs>
    <linearGradient id="logoGradient" gradientTransform="rotate(214)">
      <stop offset="100%" stop-color="#fbe95c" />
      <stop offset="0%" stop-color="#bfff00" />
    </linearGradient>
  </defs>

  <path
    d="M17.484 0c2.086 0 3.872 2.599 4.613 6.285 3.101-2.035 6.157-2.585 7.619-1.123 1.473 1.473 0.902 4.566-1.173 7.692 3.681 0.742 6.276 2.528 6.276 4.612-0 2.438-3.551 4.467-8.24 4.896 2.397 3.316 3.136 6.706 1.573 8.27-1.945 1.945-6.715 0.327-10.655-3.613-0.075-0.075-0.15-0.151-0.224-0.227-3.914 3.846-8.6 5.407-10.524 3.483-1.51-1.51-0.872-4.723 1.332-7.928-4.61-0.459-8.082-2.47-8.082-4.881 0-2.083 2.591-3.867 6.268-4.61-2.076-3.126-2.646-6.221-1.173-7.694 1.483-1.483 4.609-0.894 7.757 1.216 0.73-3.736 2.529-6.378 4.632-6.378z"
    fill="url(#logoGradient)"
  />
</symbol>


<symbol id="icon-empty-logo" viewBox="0 0 35 32">
<path stroke-width="1.2882" stroke-miterlimit="4" stroke-linecap="butt" stroke-linejoin="round" d="M17.461 0.644c0.752 0 1.548 0.469 2.284 1.491 0.73 1.015 1.333 2.492 1.691 4.273 0.042 0.21 0.186 0.385 0.384 0.467s0.423 0.061 0.602-0.056c1.496-0.983 2.947-1.582 4.164-1.773 1.225-0.192 2.108 0.040 2.635 0.567 0.531 0.531 0.763 1.425 0.563 2.666-0.199 1.231-0.814 2.7-1.815 4.21-0.118 0.179-0.14 0.405-0.058 0.603s0.258 0.343 0.468 0.385c1.777 0.359 3.25 0.962 4.262 1.692 1.020 0.736 1.488 1.532 1.488 2.285 0 0.88-0.648 1.825-2.041 2.644-1.37 0.805-3.33 1.399-5.603 1.607-0.23 0.021-0.431 0.165-0.527 0.375s-0.072 0.456 0.064 0.644c1.159 1.605 1.893 3.196 2.159 4.537 0.269 1.356 0.042 2.331-0.522 2.895-0.702 0.703-2.054 0.875-3.91 0.245-1.813-0.615-3.906-1.941-5.819-3.855-0.072-0.072-0.144-0.146-0.216-0.22-0.119-0.123-0.284-0.194-0.455-0.196s-0.337 0.065-0.459 0.185c-1.9 1.868-3.965 3.158-5.751 3.751-1.828 0.607-3.156 0.429-3.851-0.266-0.544-0.545-0.775-1.471-0.548-2.758 0.225-1.276 0.888-2.794 1.952-4.344 0.129-0.188 0.15-0.43 0.054-0.637s-0.294-0.347-0.52-0.37c-2.234-0.223-4.154-0.819-5.495-1.62-1.362-0.813-1.995-1.747-1.995-2.617 0-0.752 0.468-1.548 1.486-2.283 1.011-0.73 2.482-1.333 4.257-1.692 0.21-0.043 0.385-0.187 0.467-0.385s0.060-0.424-0.058-0.603c-1.002-1.51-1.616-2.979-1.815-4.211-0.2-1.241 0.031-2.135 0.563-2.666 0.535-0.535 1.436-0.766 2.689-0.558 1.243 0.206 2.723 0.834 4.243 1.853 0.179 0.12 0.407 0.143 0.606 0.060s0.344-0.26 0.385-0.471c0.352-1.805 0.956-3.305 1.691-4.336 0.741-1.039 1.545-1.516 2.303-1.516z"></path>
</symbol>

<symbol id="icon-arrow-top-right" viewBox="0 0 32 32">
<path stroke-width="2.2857" stroke-miterlimit="4" stroke-linecap="round" stroke-linejoin="round" d="M30.235 1.143h-16.162M30.235 1.143l-0.001 16.162M30.235 1.143l-29.092 29.092"></path>
</symbol>

<symbol id="icon-arrow-right" viewBox="0 0 53 32">
<path stroke-width="5.5652" stroke-miterlimit="4" stroke-linecap="round" stroke-linejoin="round" d="M49.626 15.794l-13.011-13.011M49.626 15.794l-13.013 13.011M49.626 15.794h-46.843"></path>
</symbol>

<symbol id="icon-arrow-bottom" viewBox="0 0 53 32">
<path stroke-width="10.6667" stroke-miterlimit="4" stroke-linecap="round" stroke-linejoin="round" d="M48 5.333l-21.333 21.333-21.333-21.333"></path>
</symbol>

<symbol id="icon-quote" viewBox="0 0 45 32">
<path d="M6.406 0c-1.415 0-2.771 0.562-3.771 1.562s-1.562 2.357-1.562 3.771v8c0 1.414 0.562 2.771 1.562 3.771s2.357 1.562 3.771 1.562h8c0 2.122-0.843 4.157-2.343 5.657s-3.535 2.343-5.657 2.343h-2.667c-0.707 0-1.386 0.281-1.886 0.781s-0.781 1.178-0.781 1.886c0 0.707 0.281 1.386 0.781 1.886s1.178 0.781 1.886 0.781h2.667c3.536 0 6.928-1.405 9.428-3.905s3.905-5.892 3.905-9.428v-13.333c0-1.415-0.562-2.771-1.562-3.771s-2.357-1.562-3.771-1.562h-8zM30.406 0c-1.415 0-2.771 0.562-3.771 1.562s-1.562 2.357-1.562 3.771v8c0 1.414 0.562 2.771 1.562 3.771s2.357 1.562 3.771 1.562h8c0 2.122-0.843 4.157-2.343 5.657s-3.535 2.343-5.657 2.343h-2.667c-0.707 0-1.386 0.281-1.886 0.781s-0.781 1.178-0.781 1.886c0 0.707 0.281 1.386 0.781 1.886s1.178 0.781 1.886 0.781h2.667c3.536 0 6.927-1.405 9.428-3.905s3.905-5.892 3.905-9.428v-13.333c0-1.415-0.562-2.771-1.562-3.771s-2.357-1.562-3.771-1.562h-8z"></path>
</symbol>

<symbol id="icon-check" viewBox="0 0 30 32">
<path d="M14.286 0c-7.886 0-14.286 6.854-14.286 15.3s6.4 15.3 14.286 15.3c7.886 0 14.286-6.854 14.286-15.3s-6.4-15.3-14.286-15.3zM10.414 21.864l-5.129-5.493c-0.557-0.597-0.557-1.561 0-2.157s1.457-0.597 2.014 0l4.129 4.406 9.829-10.526c0.557-0.597 1.457-0.597 2.014 0s0.557 1.561 0 2.157l-10.843 11.613c-0.543 0.597-1.457 0.597-2.014 0z"></path>
</symbol>

<symbol id="icon-close-check" viewBox="0 0 30 32">
<path stroke-width="1.4286" stroke-miterlimit="4" stroke-linecap="square" stroke-linejoin="miter" d="M14.285 0.715c7.46 0 13.572 6.473 13.572 14.586s-6.112 14.584-13.572 14.584c-7.46-0-13.57-6.471-13.57-14.584s6.11-14.586 13.57-14.586zM20.951 8.234c-0.84-0.899-2.219-0.899-3.059 0l-3.607 3.859-3.605-3.859c-0.839-0.899-2.219-0.899-3.059 0-0.813 0.871-0.813 2.26 0 3.131l3.674 3.934-3.674 3.936c-0.813 0.871-0.813 2.262 0 3.133 0.839 0.899 2.219 0.899 3.059 0l3.605-3.863 3.607 3.863c0.84 0.898 2.219 0.899 3.059 0l0.006-0.008c0.787-0.866 0.796-2.266-0.006-3.125l-3.676-3.936 3.676-3.934c0.813-0.871 0.813-2.26 0-3.131z"></path>
</symbol>

<symbol id="icon-linkedin" viewBox="0 0 32 32">
<path d="M32 2.353v27.294c0 0.624-0.248 1.223-0.689 1.664s-1.040 0.689-1.664 0.689h-27.294c-0.624 0-1.223-0.248-1.664-0.689s-0.689-1.040-0.689-1.664v-27.294c0-0.624 0.248-1.223 0.689-1.664s1.040-0.689 1.664-0.689h27.294c0.624 0 1.223 0.248 1.664 0.689s0.689 1.040 0.689 1.664zM9.412 12.235h-4.706v15.059h4.706v-15.059zM9.835 7.059c0.002-0.356-0.065-0.709-0.199-1.039s-0.332-0.63-0.581-0.883c-0.25-0.253-0.547-0.455-0.875-0.594s-0.68-0.211-1.036-0.214h-0.085c-0.724 0-1.418 0.288-1.93 0.799s-0.799 1.206-0.799 1.93c0 0.724 0.288 1.418 0.799 1.93s1.206 0.799 1.93 0.799c0.356 0.009 0.71-0.053 1.042-0.181s0.636-0.321 0.894-0.566c0.258-0.246 0.465-0.54 0.609-0.865s0.223-0.676 0.231-1.032v-0.085zM27.294 18.146c0-4.527-2.88-6.287-5.741-6.287-0.937-0.047-1.87 0.153-2.705 0.579s-1.545 1.064-2.057 1.85h-0.132v-2.052h-4.424v15.059h4.706v-8.009c-0.068-0.82 0.19-1.634 0.719-2.265s1.285-1.028 2.105-1.104h0.179c1.496 0 2.607 0.941 2.607 3.313v8.066h4.706l0.038-9.148z"></path>
</symbol>

<symbol id="icon-instagram" viewBox="0 0 32 32">
<path d="M16 0c-4.346 0-4.89 0.018-6.596 0.096-1.703 0.078-2.867 0.349-3.885 0.745-1.067 0.401-2.034 1.030-2.834 1.845-0.814 0.799-1.443 1.766-1.845 2.833-0.394 1.018-0.666 2.182-0.743 3.886-0.077 1.706-0.096 2.249-0.096 6.595s0.018 4.89 0.096 6.596c0.078 1.703 0.349 2.867 0.745 3.885 0.401 1.067 1.030 2.034 1.845 2.834 0.799 0.814 1.766 1.443 2.833 1.845 1.018 0.395 2.181 0.666 3.885 0.743 1.707 0.078 2.251 0.096 6.596 0.096s4.89-0.018 6.596-0.096c1.703-0.078 2.867-0.349 3.885-0.745 1.067-0.401 2.034-1.030 2.834-1.845 0.814-0.799 1.443-1.766 1.845-2.833 0.395-1.018 0.666-2.181 0.743-3.885 0.078-1.707 0.096-2.251 0.096-6.596s-0.018-4.89-0.096-6.596c-0.078-1.703-0.349-2.867-0.745-3.885-0.402-1.068-1.031-2.035-1.845-2.834-0.799-0.814-1.766-1.443-2.833-1.845-1.018-0.394-2.182-0.666-3.886-0.743-1.706-0.077-2.249-0.096-6.595-0.096zM16 2.883c4.272 0 4.779 0.016 6.466 0.093 1.559 0.071 2.406 0.331 2.971 0.551 0.747 0.289 1.28 0.637 1.84 1.196 0.56 0.56 0.907 1.093 1.196 1.84 0.22 0.564 0.48 1.411 0.551 2.971 0.077 1.687 0.093 2.194 0.093 6.466s-0.016 4.779-0.093 6.466c-0.071 1.559-0.331 2.406-0.551 2.971-0.256 0.695-0.665 1.324-1.196 1.84-0.516 0.531-1.145 0.94-1.84 1.196-0.564 0.22-1.411 0.48-2.971 0.551-1.687 0.077-2.193 0.093-6.466 0.093s-4.779-0.016-6.466-0.093c-1.559-0.071-2.406-0.331-2.971-0.551-0.695-0.256-1.324-0.665-1.84-1.196-0.531-0.516-0.94-1.145-1.196-1.84-0.22-0.564-0.48-1.411-0.551-2.971-0.077-1.687-0.093-2.194-0.093-6.466s0.016-4.779 0.093-6.466c0.071-1.559 0.331-2.406 0.551-2.971 0.289-0.747 0.637-1.28 1.196-1.84 0.516-0.531 1.145-0.94 1.84-1.196 0.564-0.22 1.411-0.48 2.971-0.551 1.687-0.077 2.194-0.093 6.466-0.093z"></path>
<path d="M16 21.339c-0.701 0-1.395-0.138-2.043-0.406s-1.236-0.662-1.732-1.157c-0.496-0.496-0.889-1.084-1.157-1.732s-0.406-1.342-0.406-2.043c0-0.701 0.138-1.395 0.406-2.043s0.662-1.236 1.157-1.732c0.496-0.496 1.084-0.889 1.732-1.157s1.342-0.406 2.043-0.406c1.416 0 2.774 0.562 3.775 1.564s1.564 2.359 1.564 3.775c0 1.416-0.562 2.774-1.564 3.775s-2.359 1.564-3.775 1.564zM16 7.776c-2.181 0-4.273 0.866-5.815 2.409s-2.409 3.634-2.409 5.815c0 2.181 0.866 4.273 2.409 5.815s3.634 2.409 5.815 2.409c2.181 0 4.273-0.866 5.815-2.409s2.409-3.634 2.409-5.815c0-2.181-0.866-4.273-2.409-5.815s-3.634-2.409-5.815-2.409zM26.617 7.627c0 0.516-0.205 1.010-0.569 1.375s-0.859 0.569-1.375 0.569c-0.516 0-1.010-0.205-1.375-0.569s-0.569-0.859-0.569-1.375c0-0.516 0.205-1.010 0.569-1.375s0.859-0.569 1.375-0.569c0.516 0 1.010 0.205 1.375 0.569s0.569 0.859 0.569 1.375z"></path>
</symbol>

<symbol id="icon-facebook" viewBox="0 0 32 32">
<path d="M32 16.098c0-8.891-7.163-16.098-16-16.098s-16 7.207-16 16.098c0 8.035 5.851 14.694 13.5 15.902v-11.249h-4.063v-4.653h4.063v-3.547c0-4.035 2.389-6.263 6.043-6.263 1.751 0 3.582 0.314 3.582 0.314v3.962h-2.018c-1.988 0-2.607 1.241-2.607 2.514v3.020h4.438l-0.709 4.653h-3.728v11.249c7.649-1.208 13.5-7.867 13.5-15.902z"></path>
</symbol>

<symbol id="icon-seven" viewBox="0 0 22 32">
<path d="M4.087 30.605l7.627-21.584h-10.89v-7.627h18.91l1.848 3.066-9.003 26.144h-8.492z"></path>
</symbol>

<symbol id="icon-burger" viewBox="0 0 48 32">
<path d="M2.667 32h42.667c1.467 0 2.667-1.2 2.667-2.667s-1.2-2.667-2.667-2.667h-42.667c-1.467 0-2.667 1.2-2.667 2.667s1.2 2.667 2.667 2.667zM2.667 18.667h42.667c1.467 0 2.667-1.2 2.667-2.667s-1.2-2.667-2.667-2.667h-42.667c-1.467 0-2.667 1.2-2.667 2.667s1.2 2.667 2.667 2.667zM0 2.667c0 1.467 1.2 2.667 2.667 2.667h42.667c1.467 0 2.667-1.2 2.667-2.667s-1.2-2.667-2.667-2.667h-42.667c-1.467 0-2.667 1.2-2.667 2.667z"></path>
</symbol>

<symbol id="icon-phone" viewBox="0 0 32 32">
<path stroke-width="1.8824" stroke-miterlimit="4" stroke-linecap="round" stroke-linejoin="round" d="M11.651 3.012c-0.5-1.251-1.712-2.071-3.059-2.071h-4.531c-1.724 0-3.121 1.397-3.121 3.12 0 14.65 11.877 26.527 26.527 26.527 1.723 0 3.12-1.397 3.12-3.121l0.001-4.531c0-1.347-0.82-2.558-2.070-3.058l-4.342-1.736c-1.123-0.449-2.402-0.247-3.332 0.527l-1.121 0.935c-1.309 1.091-3.235 1.004-4.439-0.201l-3.156-3.159c-1.205-1.205-1.294-3.129-0.203-4.438l0.934-1.121c0.775-0.93 0.979-2.209 0.529-3.332l-1.738-4.341z"></path>
</symbol>

<symbol id="icon-mail" viewBox="0 0 39 32">
<path stroke-width="2.4615" stroke-miterlimit="4" stroke-linecap="round" stroke-linejoin="round" d="M3.282 3.282l12.533 9.465c1.391 1.020 2.087 1.531 2.849 1.728 0.674 0.174 1.382 0.174 2.056 0 0.763-0.197 1.461-0.709 2.855-1.731 0 0 8.036-6.167 12.528-9.461M1.231 23.385v-15.59c0-2.298 0-3.447 0.447-4.325 0.393-0.772 1.020-1.399 1.792-1.792 0.878-0.447 2.027-0.447 4.325-0.447h23.795c2.298 0 3.445 0 4.322 0.447 0.772 0.393 1.401 1.020 1.794 1.792 0.447 0.877 0.447 2.025 0.447 4.318v15.603c0 2.293 0 3.44-0.447 4.317-0.393 0.772-1.023 1.4-1.794 1.793-0.877 0.447-2.023 0.447-4.317 0.447h-23.808c-2.293 0-3.441 0-4.318-0.447-0.772-0.393-1.399-1.022-1.792-1.793-0.447-0.878-0.447-2.026-0.447-4.324z"></path>
</symbol>

<symbol id="icon-flows" viewBox="0 0 111 32">
<path d="M100.7 31.029c-0.78 0-1.56-0.027-2.34-0.081s-1.547-0.121-2.3-0.202c-0.726-0.108-1.412-0.242-2.058-0.404s-1.224-0.35-1.735-0.565v-4.559h10.087c0.35 0 0.605-0.027 0.767-0.081 0.188-0.081 0.309-0.175 0.363-0.282 0.054-0.135 0.081-0.282 0.081-0.444v-0.524c0-0.269-0.094-0.471-0.282-0.605-0.161-0.161-0.565-0.242-1.21-0.242h-3.632c-1.21 0-2.327-0.202-3.349-0.605-0.995-0.403-1.802-1.062-2.421-1.977-0.592-0.915-0.888-2.138-0.888-3.672v-1.332c0-1.399 0.269-2.582 0.807-3.551 0.538-0.995 1.493-1.748 2.865-2.26 1.372-0.538 3.295-0.807 5.77-0.807 0.995 0 2.004 0.067 3.026 0.202 1.022 0.108 1.964 0.256 2.824 0.444 0.888 0.188 1.574 0.39 2.058 0.605v4.559h-9.563c-0.403 0-0.699 0.067-0.888 0.202-0.188 0.108-0.282 0.309-0.282 0.605v0.525c0 0.215 0.040 0.39 0.121 0.525 0.108 0.108 0.282 0.188 0.525 0.242s0.565 0.081 0.968 0.081h3.752c2.367 0 4.021 0.538 4.963 1.614 0.968 1.076 1.453 2.529 1.453 4.358v2.219c0 1.452-0.35 2.623-1.049 3.51s-1.749 1.533-3.147 1.937c-1.399 0.377-3.161 0.565-5.286 0.565z"></path>
<path d="M62.771 30.786l-5.205-21.748h8.070l2.219 14.526 3.47-14.526h6.375l3.47 14.526 1.775-14.526h8.070l-5.084 21.748h-8.635l-2.945-10.531-3.107 10.531h-8.473z"></path>
<path d="M46.442 30.989c-1.937 0-3.578-0.202-4.923-0.605-1.318-0.404-2.381-1.049-3.188-1.937s-1.385-2.031-1.735-3.43c-0.35-1.426-0.524-3.147-0.524-5.165 0-2.179 0.175-3.981 0.524-5.407 0.377-1.453 0.968-2.596 1.775-3.43 0.807-0.861 1.869-1.466 3.188-1.816 1.345-0.35 2.972-0.525 4.882-0.525 1.937 0 3.564 0.188 4.882 0.565 1.345 0.377 2.407 0.995 3.188 1.856 0.807 0.834 1.385 1.977 1.735 3.43 0.377 1.426 0.565 3.201 0.565 5.326 0 2.098-0.175 3.86-0.524 5.286-0.323 1.426-0.888 2.569-1.695 3.43-0.78 0.861-1.843 1.48-3.188 1.856-1.318 0.377-2.972 0.565-4.963 0.565zM46.442 24.775c0.511 0 0.928-0.040 1.251-0.121 0.323-0.108 0.578-0.323 0.767-0.646s0.323-0.82 0.404-1.493 0.121-1.574 0.121-2.703c0-1.13-0.040-2.017-0.121-2.663-0.081-0.673-0.215-1.17-0.404-1.493s-0.444-0.525-0.767-0.605c-0.323-0.108-0.74-0.161-1.251-0.161s-0.928 0.054-1.251 0.161c-0.323 0.081-0.578 0.282-0.767 0.605s-0.323 0.82-0.404 1.493c-0.081 0.646-0.121 1.533-0.121 2.663s0.040 2.031 0.121 2.703c0.081 0.672 0.215 1.17 0.404 1.493s0.444 0.538 0.767 0.646c0.323 0.081 0.74 0.121 1.251 0.121z"></path>
<path d="M31.019 30.907c-1.722 0-3.147-0.269-4.277-0.807-1.103-0.538-1.923-1.332-2.461-2.38-0.538-1.076-0.807-2.408-0.807-3.995v-23.725h7.828v22.515c0 0.511 0.054 0.941 0.161 1.291 0.135 0.35 0.323 0.619 0.565 0.807 0.269 0.188 0.605 0.323 1.009 0.403l1.332 0.202v5.689h-3.349z"></path>
<path d="M0 30.787v-22.555c0-1.453 0.229-2.663 0.686-3.631s1.049-1.722 1.775-2.26c0.726-0.565 1.533-0.955 2.421-1.17 0.888-0.242 1.748-0.363 2.582-0.363s1.991 0.013 3.47 0.040c1.479 0 3.080 0.054 4.802 0.161 1.748 0.081 3.403 0.229 4.963 0.444v6.577h-10.975c-0.672 0-1.157 0.188-1.453 0.565-0.296 0.35-0.444 0.726-0.444 1.13v3.389l10.854 0.403v6.214l-10.854 0.404v10.652h-7.828z"></path>
</symbol>


</defs>
</svg>
