<svg viewBox="0 0 134.957 126.973" xmlns="http://www.w3.org/2000/svg" fill="none">
  <defs>
    <linearGradient id="paint_linear_0" x1="149.19" x2="-2.292" y1="-27.633" y2="108.609" gradientUnits="userSpaceOnUse">
      <stop stop-color="rgb(191,255,0)" offset="0" />
      <stop stop-color="rgb(251,233,92)" offset="1" />
    </linearGradient>
  </defs>
  <g>
    <path d="M67.7682 2C75.8536 2.00017 82.7759 12.0797 85.6487 26.3785C97.6672 18.4855 109.514 16.3535 115.178 22.0209C120.887 27.7334 118.674 39.7308 110.632 51.8555C124.901 54.7349 134.956 61.6589 134.956 69.7428C134.955 79.2006 121.192 87.0688 103.019 88.7314C112.311 101.594 115.175 114.742 109.115 120.806C101.578 128.349 83.0886 122.075 67.8181 106.794C67.5256 106.502 67.2372 106.207 66.9513 105.912C51.7808 120.827 33.6164 126.882 26.1618 119.423C20.3098 113.567 22.7805 101.105 31.3239 88.6733C13.4548 86.8916 0 79.0929 0 69.7415C0.000558467 61.6632 10.0419 54.7436 24.2957 51.8609C16.2511 39.7349 14.0387 27.734 19.7479 22.0209C25.4959 16.2693 37.6123 18.5526 49.8134 26.7366C52.6418 12.2479 59.6152 2 67.7682 2Z" fill="url(#paint_linear_0)" />
    <path d="M47.6133 26.4526L47.6147 0L21.1635 0M0 47.6147L47.6147 0" stroke="rgb(9,9,9)" stroke-linecap="round" stroke-linejoin="round" stroke-width="8" transform="matrix(0.707107,0.707107,-0.707107,0.707107,67,29.8213)" />
  </g>
</svg>
