<svg viewBox="0 0 135 122" xmlns="http://www.w3.org/2000/svg" fill="none">
  <g>
    <path d="M67.7686 2.5C70.6861 2.50024 73.7777 4.3202 76.6338 8.28809C79.468 12.2257 81.8083 17.958 83.1973 24.8711C83.3609 25.6853 83.9183 26.3653 84.6846 26.6855C85.451 27.0057 86.3272 26.9237 87.0215 26.4678C92.8295 22.6535 98.4619 20.3246 103.184 19.584C107.939 18.8381 111.366 19.7422 113.41 21.7881C115.471 23.8505 116.372 27.3189 115.594 32.1348C114.821 36.9143 112.436 42.6121 108.548 48.4736C108.088 49.167 108.004 50.0439 108.322 50.8125C108.641 51.5811 109.321 52.1409 110.137 52.3057C117.035 53.6976 122.754 56.0403 126.682 58.875C130.639 61.7312 132.456 64.8237 132.456 67.7432C132.456 71.1593 129.941 74.8279 124.535 78.0049C119.218 81.1298 111.612 83.4352 102.791 84.2422C101.897 84.324 101.115 84.879 100.743 85.6963C100.371 86.5136 100.466 87.4675 100.992 88.1953C105.493 94.4254 108.341 100.6 109.372 105.805C110.415 111.067 109.534 114.85 107.347 117.039C104.62 119.767 99.3749 120.436 92.1699 117.991C85.1325 115.603 77.0104 110.456 69.5869 103.027C69.3061 102.746 69.0262 102.461 68.7461 102.172C68.2825 101.694 67.6474 101.42 66.9814 101.412C66.3154 101.404 65.6733 101.662 65.1982 102.129C57.824 109.379 49.8086 114.384 42.876 116.685C35.7826 119.039 30.6253 118.353 27.9297 115.655C25.8174 113.541 24.9241 109.946 25.8066 104.949C26.6815 99.9967 29.2512 94.1038 33.3848 88.0889C33.8851 87.3605 33.9639 86.4216 33.5918 85.6201C33.2196 84.8186 32.4516 84.2733 31.5723 84.1855C22.9004 83.3209 15.4463 81.006 10.2422 77.8994C4.95484 74.7431 2.5 71.1187 2.5 67.7412L2.50488 67.4678C2.61515 64.6314 4.43783 61.6453 8.2666 58.8799C12.1892 56.0467 17.9007 53.705 24.791 52.3115C25.6066 52.1466 26.287 51.5861 26.6055 50.8174C26.9238 50.0487 26.8388 49.1718 26.3789 48.4785C22.4901 42.6166 20.1045 36.9182 19.332 32.1377C18.5537 27.3204 19.4553 23.8508 21.5166 21.7881C23.5912 19.7123 27.0902 18.8127 31.9512 19.6191C36.7741 20.4194 42.5212 22.8553 48.4209 26.8125C49.1163 27.2789 49.9992 27.367 50.7725 27.0459C51.5457 26.7248 52.1071 26.0375 52.2676 25.2158C53.6354 18.2091 55.9785 12.3877 58.8301 8.38574C61.6153 4.47688 64.6315 2.61812 67.4922 2.50586L67.7686 2.5Z" stroke="url(#paint0_linear)" stroke-width="5" stroke-linejoin="round"/>
  </g>
  <defs>
    <linearGradient id="paint0_linear" x1="167.746" y1="-30.5986" x2="32.5867" y2="135.161" gradientUnits="userSpaceOnUse">
      <stop stop-color="#BFFF00"/>
      <stop offset="1" stop-color="#FBE95C"/>
    </linearGradient>
  </defs>
</svg>
