<svg viewBox="0 0 363 131" xmlns="http://www.w3.org/2000/svg" xmlns:xlink="http://www.w3.org/1999/xlink" width="363.000000" height="131.000000" fill="none" customFrame="#000000">
	<defs>
		<linearGradient id="paint_linear_0" x1="451.197205" x2="363.981812" y1="-32.8558388" y2="235.08017" gradientUnits="userSpaceOnUse">
			<stop stop-color="rgb(191.25,255,0)" offset="0" stop-opacity="1" />
			<stop stop-color="rgb(251,233,92)" offset="1" stop-opacity="1" />
		</linearGradient>
		<clipPath id="clipPath_0">
			<rect width="24.000000" height="24.000000" x="329.000000" y="53.000000" fill="rgb(255,255,255)" />
		</clipPath>
	</defs>
	<rect id="Button Primary" width="363.000000" height="131.000000" x="0.000000" y="0.000000" />
	<path id="Union" d="M322 16C322 7.16344 314.837 0 306 0L16 0C7.16344 0 0 7.16344 0 16L0 115C0 123.837 7.16344 131 16 131L306 131C314.837 131 322 123.837 322 115L322 108C322 99.1634 329.163 92 338 92L347 92C355.837 92 363 84.8366 363 76L363 55C363 46.1634 355.837 39 347 39L338 39C329.163 39 322 31.8366 322 23L322 16Z" fill="url(#paint_linear_0)" fill-rule="evenodd" />
	<g id="Arrow / Arrow_Up_Right_LG" opacity="0" clip-path="url(#clipPath_0)" customFrame="url(#clipPath_0)">
		<rect id="Arrow / Arrow_Up_Right_LG" width="24.000000" height="24.000000" x="329.000000" y="53.000000" opacity="0" />
		<path id="Vector" d="M347.364 65.7078L347.365 58.6367L340.294 58.6367M334.637 71.3646L347.365 58.6367" stroke="rgb(9,9,9)" stroke-linecap="round" stroke-linejoin="round" stroke-width="1" />
	</g>
	<path id="Обговорити проєкт" d="M86.8097 65.5C86.8097 66.8977 86.554 68.0994 86.0426 69.1051C85.5312 70.1065 84.8303 70.8778 83.9396 71.419C83.0533 71.956 82.0455 72.2244 80.9162 72.2244C79.7827 72.2244 78.7706 71.956 77.88 71.419C76.9936 70.8778 76.2947 70.1044 75.7834 69.0987C75.272 68.093 75.0163 66.8935 75.0163 65.5C75.0163 64.1023 75.272 62.9027 75.7834 61.9013C76.2947 60.8956 76.9936 60.1243 77.88 59.5874C78.7706 59.0462 79.7827 58.7756 80.9162 58.7756C82.0455 58.7756 83.0533 59.0462 83.9396 59.5874C84.8303 60.1243 85.5312 60.8956 86.0426 61.9013C86.554 62.9027 86.8097 64.1023 86.8097 65.5ZM84.8537 65.5C84.8537 64.4347 84.6811 63.5376 84.3359 62.8089C83.995 62.076 83.5263 61.522 82.9297 61.147C82.3374 60.7678 81.6662 60.5781 80.9162 60.5781C80.1619 60.5781 79.4886 60.7678 78.8963 61.147C78.304 61.522 77.8352 62.076 77.4901 62.8089C77.1491 63.5376 76.9787 64.4347 76.9787 65.5C76.9787 66.5653 77.1491 67.4645 77.4901 68.1974C77.8352 68.9261 78.304 69.4801 78.8963 69.8594C79.4886 70.2344 80.1619 70.4219 80.9162 70.4219C81.6662 70.4219 82.3374 70.2344 82.9297 69.8594C83.5263 69.4801 83.995 68.9261 84.3359 68.1974C84.6811 67.4645 84.8537 66.5653 84.8537 65.5ZM96.6934 58.571L97.486 59.7791C97.1919 60.0476 96.8574 60.2393 96.4824 60.3544C96.1117 60.4652 95.6834 60.5355 95.1976 60.5653C94.7118 60.5909 94.1557 60.6143 93.5293 60.6357C92.8219 60.657 92.2402 60.8104 91.7843 61.0959C91.3283 61.3771 90.9767 61.7947 90.7296 62.3487C90.4867 62.8984 90.329 63.5888 90.2566 64.4197L90.378 64.4197C90.6976 63.8104 91.1408 63.3544 91.7076 63.0518C92.2786 62.7493 92.9199 62.598 93.6316 62.598C94.4242 62.598 95.1294 62.7791 95.7473 63.1413C96.3652 63.5036 96.851 64.0341 97.2047 64.733C97.5627 65.4276 97.7417 66.2777 97.7417 67.2834C97.7417 68.3018 97.5542 69.1818 97.1792 69.9233C96.8084 70.6648 96.2843 71.2379 95.6067 71.6428C94.9334 72.0433 94.1387 72.2436 93.2225 72.2436C92.3063 72.2436 91.5073 72.0369 90.8255 71.6236C90.1479 71.206 89.6216 70.5881 89.2466 69.7699C88.8759 68.9517 88.6905 67.9418 88.6905 66.7401L88.6905 65.7685C88.6905 63.5227 89.0911 61.8331 89.8922 60.6996C90.6934 59.5661 91.8908 58.9844 93.4846 58.9545C94.0002 58.9418 94.4604 58.9396 94.8652 58.9482C95.2701 58.9524 95.6238 58.9332 95.9263 58.8906C96.2331 58.8438 96.4888 58.7372 96.6934 58.571ZM93.2289 70.6392C93.7615 70.6392 94.2196 70.505 94.6032 70.2365C94.9909 69.9638 95.2892 69.5781 95.498 69.0795C95.7069 68.581 95.8113 67.9929 95.8113 67.3153C95.8113 66.6506 95.7069 66.0859 95.498 65.6214C95.2892 65.157 94.9909 64.8033 94.6032 64.5604C94.2154 64.3132 93.7509 64.1896 93.2097 64.1896C92.8091 64.1896 92.4512 64.2599 92.1358 64.4006C91.8205 64.5369 91.5499 64.7393 91.324 65.0078C91.1024 65.2763 90.9299 65.6044 90.8063 65.9922C90.687 66.3757 90.623 66.8168 90.6145 67.3153C90.6145 68.3295 90.8468 69.1371 91.3113 69.7379C91.78 70.3388 92.4192 70.6392 93.2289 70.6392ZM106.154 62.2273L106.154 63.8764L101.762 63.8764L101.762 72.0455L99.8766 72.0455L99.8766 62.2273L106.154 62.2273ZM111.852 72.2436C110.932 72.2436 110.128 72.0327 109.442 71.6108C108.756 71.1889 108.224 70.5987 107.844 69.8402C107.465 69.0817 107.275 68.1953 107.275 67.1811C107.275 66.1626 107.465 65.272 107.844 64.5092C108.224 63.7464 108.756 63.1541 109.442 62.7322C110.128 62.3104 110.932 62.0994 111.852 62.0994C112.773 62.0994 113.576 62.3104 114.262 62.7322C114.948 63.1541 115.481 63.7464 115.86 64.5092C116.239 65.272 116.429 66.1626 116.429 67.1811C116.429 68.1953 116.239 69.0817 115.86 69.8402C115.481 70.5987 114.948 71.1889 114.262 71.6108C113.576 72.0327 112.773 72.2436 111.852 72.2436ZM111.858 70.6392C112.455 70.6392 112.949 70.4815 113.341 70.1662C113.733 69.8509 114.023 69.4311 114.211 68.907C114.403 68.3828 114.498 67.8054 114.498 67.1747C114.498 66.5483 114.403 65.973 114.211 65.4489C114.023 64.9205 113.733 64.4964 113.341 64.1768C112.949 63.8572 112.455 63.6974 111.858 63.6974C111.258 63.6974 110.759 63.8572 110.363 64.1768C109.971 64.4964 109.679 64.9205 109.487 65.4489C109.3 65.973 109.206 66.5483 109.206 67.1747C109.206 67.8054 109.3 68.3828 109.487 68.907C109.679 69.4311 109.971 69.8509 110.363 70.1662C110.759 70.4815 111.258 70.6392 111.858 70.6392ZM118.562 72.0455L118.562 62.2273L122.634 62.2273C123.742 62.2273 124.62 62.4638 125.267 62.9368C125.915 63.4055 126.239 64.0426 126.239 64.848C126.239 65.4233 126.056 65.8793 125.689 66.2159C125.323 66.5526 124.837 66.7784 124.232 66.8935C124.671 66.9446 125.074 67.0767 125.44 67.2898C125.806 67.4986 126.1 67.7798 126.322 68.1335C126.548 68.4872 126.661 68.9091 126.661 69.3991C126.661 69.919 126.527 70.3793 126.258 70.7798C125.99 71.1761 125.6 71.4872 125.088 71.7131C124.581 71.9347 123.97 72.0455 123.254 72.0455L118.562 72.0455ZM120.358 70.4474L123.254 70.4474C123.727 70.4474 124.098 70.3345 124.366 70.1087C124.635 69.8828 124.769 69.576 124.769 69.1882C124.769 68.7322 124.635 68.3743 124.366 68.1143C124.098 67.8501 123.727 67.718 123.254 67.718L120.358 67.718L120.358 70.4474ZM120.358 66.3182L122.653 66.3182C123.011 66.3182 123.318 66.267 123.574 66.1648C123.833 66.0625 124.032 65.9176 124.168 65.7301C124.309 65.5384 124.379 65.3125 124.379 65.0526C124.379 64.6733 124.223 64.3771 123.912 64.1641C123.601 63.951 123.175 63.8445 122.634 63.8445L120.358 63.8445L120.358 66.3182ZM132.893 72.2436C131.973 72.2436 131.169 72.0327 130.483 71.6108C129.797 71.1889 129.265 70.5987 128.885 69.8402C128.506 69.0817 128.316 68.1953 128.316 67.1811C128.316 66.1626 128.506 65.272 128.885 64.5092C129.265 63.7464 129.797 63.1541 130.483 62.7322C131.169 62.3104 131.973 62.0994 132.893 62.0994C133.814 62.0994 134.617 62.3104 135.303 62.7322C135.989 63.1541 136.522 63.7464 136.901 64.5092C137.28 65.272 137.47 66.1626 137.47 67.1811C137.47 68.1953 137.28 69.0817 136.901 69.8402C136.522 70.5987 135.989 71.1889 135.303 71.6108C134.617 72.0327 133.814 72.2436 132.893 72.2436ZM132.9 70.6392C133.496 70.6392 133.99 70.4815 134.382 70.1662C134.775 69.8509 135.064 69.4311 135.252 68.907C135.444 68.3828 135.539 67.8054 135.539 67.1747C135.539 66.5483 135.444 65.973 135.252 65.4489C135.064 64.9205 134.775 64.4964 134.382 64.1768C133.99 63.8572 133.496 63.6974 132.9 63.6974C132.299 63.6974 131.8 63.8572 131.404 64.1768C131.012 64.4964 130.72 64.9205 130.528 65.4489C130.341 65.973 130.247 66.5483 130.247 67.1747C130.247 67.8054 130.341 68.3828 130.528 68.907C130.72 69.4311 131.012 69.8509 131.404 70.1662C131.8 70.4815 132.299 70.6392 132.9 70.6392ZM139.603 75.7273L139.603 62.2273L141.47 62.2273L141.47 63.8189L141.629 63.8189C141.74 63.6143 141.9 63.3778 142.109 63.1094C142.318 62.8409 142.607 62.6065 142.978 62.4062C143.349 62.2017 143.839 62.0994 144.448 62.0994C145.241 62.0994 145.948 62.2997 146.57 62.7003C147.193 63.1009 147.681 63.6783 148.034 64.4325C148.392 65.1868 148.571 66.0945 148.571 67.1555C148.571 68.2166 148.394 69.1264 148.041 69.8849C147.687 70.6392 147.201 71.2209 146.583 71.63C145.965 72.0348 145.26 72.2372 144.467 72.2372C143.871 72.2372 143.383 72.1371 143.004 71.9368C142.629 71.7365 142.335 71.5021 142.122 71.2337C141.909 70.9652 141.745 70.7266 141.629 70.5178L141.514 70.5178L141.514 75.7273L139.603 75.7273ZM141.476 67.1364C141.476 67.8267 141.576 68.4318 141.776 68.9517C141.977 69.4716 142.267 69.8786 142.646 70.1726C143.025 70.4624 143.49 70.6072 144.039 70.6072C144.61 70.6072 145.088 70.456 145.471 70.1534C145.855 69.8466 146.144 69.4311 146.34 68.907C146.541 68.3828 146.641 67.7926 146.641 67.1364C146.641 66.4886 146.543 65.907 146.347 65.3913C146.155 64.8757 145.865 64.4688 145.477 64.1705C145.094 63.8722 144.615 63.723 144.039 63.723C143.485 63.723 143.017 63.8658 142.633 64.1513C142.254 64.4368 141.966 64.8352 141.77 65.3466C141.574 65.858 141.476 66.4545 141.476 67.1364ZM152.585 69.3672L156.913 62.2273L158.971 62.2273L158.971 72.0455L157.098 72.0455L157.098 64.8991L152.79 72.0455L150.713 72.0455L150.713 62.2273L152.585 62.2273L152.585 69.3672ZM160.323 63.8764L160.323 62.2273L168.607 62.2273L168.607 63.8764L165.405 63.8764L165.405 72.0455L163.538 72.0455L163.538 63.8764L160.323 63.8764ZM172.501 69.3672L176.829 62.2273L178.887 62.2273L178.887 72.0455L177.014 72.0455L177.014 64.8991L172.706 72.0455L170.629 72.0455L170.629 62.2273L172.501 62.2273L172.501 69.3672ZM186.22 72.0455L186.22 62.2273L194.23 62.2273L194.23 72.0455L192.357 72.0455L192.357 63.8764L188.08 63.8764L188.08 72.0455L186.22 72.0455ZM196.785 75.7273L196.785 62.2273L198.651 62.2273L198.651 63.8189L198.811 63.8189C198.922 63.6143 199.082 63.3778 199.29 63.1094C199.499 62.8409 199.789 62.6065 200.16 62.4062C200.531 62.2017 201.021 62.0994 201.63 62.0994C202.423 62.0994 203.13 62.2997 203.752 62.7003C204.374 63.1009 204.862 63.6783 205.216 64.4325C205.574 65.1868 205.753 66.0945 205.753 67.1555C205.753 68.2166 205.576 69.1264 205.222 69.8849C204.869 70.6392 204.383 71.2209 203.765 71.63C203.147 72.0348 202.442 72.2372 201.649 72.2372C201.053 72.2372 200.565 72.1371 200.185 71.9368C199.81 71.7365 199.516 71.5021 199.303 71.2337C199.09 70.9652 198.926 70.7266 198.811 70.5178L198.696 70.5178L198.696 75.7273L196.785 75.7273ZM198.658 67.1364C198.658 67.8267 198.758 68.4318 198.958 68.9517C199.158 69.4716 199.448 69.8786 199.827 70.1726C200.207 70.4624 200.671 70.6072 201.221 70.6072C201.792 70.6072 202.269 70.456 202.653 70.1534C203.036 69.8466 203.326 69.4311 203.522 68.907C203.722 68.3828 203.822 67.7926 203.822 67.1364C203.822 66.4886 203.724 65.907 203.528 65.3913C203.337 64.8757 203.047 64.4688 202.659 64.1705C202.276 63.8722 201.796 63.723 201.221 63.723C200.667 63.723 200.198 63.8658 199.815 64.1513C199.435 64.4368 199.148 64.8352 198.952 65.3466C198.756 65.858 198.658 66.4545 198.658 67.1364ZM212.03 72.2436C211.109 72.2436 210.306 72.0327 209.62 71.6108C208.934 71.1889 208.401 70.5987 208.022 69.8402C207.643 69.0817 207.453 68.1953 207.453 67.1811C207.453 66.1626 207.643 65.272 208.022 64.5092C208.401 63.7464 208.934 63.1541 209.62 62.7322C210.306 62.3104 211.109 62.0994 212.03 62.0994C212.95 62.0994 213.754 62.3104 214.44 62.7322C215.126 63.1541 215.658 63.7464 216.038 64.5092C216.417 65.272 216.607 66.1626 216.607 67.1811C216.607 68.1953 216.417 69.0817 216.038 69.8402C215.658 70.5987 215.126 71.1889 214.44 71.6108C213.754 72.0327 212.95 72.2436 212.03 72.2436ZM212.036 70.6392C212.633 70.6392 213.127 70.4815 213.519 70.1662C213.911 69.8509 214.201 69.4311 214.388 68.907C214.58 68.3828 214.676 67.8054 214.676 67.1747C214.676 66.5483 214.58 65.973 214.388 65.4489C214.201 64.9205 213.911 64.4964 213.519 64.1768C213.127 63.8572 212.633 63.6974 212.036 63.6974C211.435 63.6974 210.937 63.8572 210.54 64.1768C210.148 64.4964 209.857 64.9205 209.665 65.4489C209.477 65.973 209.384 66.5483 209.384 67.1747C209.384 67.8054 209.477 68.3828 209.665 68.907C209.857 69.4311 210.148 69.8509 210.54 70.1662C210.937 70.4815 211.435 70.6392 212.036 70.6392ZM223.029 66.5227L223.029 67.9929L218.618 67.9929L218.618 66.5227L223.029 66.5227ZM226.417 65.2443L224.576 65.3849C224.456 64.9332 224.218 64.5433 223.86 64.2152C223.502 63.8871 223.01 63.723 222.383 63.723C221.829 63.723 221.352 63.8658 220.952 64.1513C220.555 64.4325 220.251 64.8288 220.037 65.3402C219.824 65.8516 219.718 66.4503 219.718 67.1364C219.718 67.8352 219.822 68.4446 220.031 68.9645C220.24 69.4844 220.545 69.8892 220.945 70.179C221.346 70.4645 221.825 70.6072 222.383 70.6072C222.758 70.6072 223.093 70.5433 223.387 70.4155C223.681 70.2834 223.926 70.098 224.122 69.8594C224.322 69.6165 224.467 69.331 224.557 69.0028L226.41 69.1435C226.304 69.7401 226.072 70.2727 225.714 70.7415C225.36 71.206 224.9 71.5724 224.333 71.8409C223.77 72.1094 223.121 72.2436 222.383 72.2436C221.45 72.2436 220.645 72.0284 219.967 71.598C219.29 71.1634 218.765 70.5625 218.395 69.7955C218.028 69.0241 217.845 68.1378 217.845 67.1364C217.845 66.1562 218.03 65.2869 218.401 64.5284C218.776 63.7699 219.302 63.1754 219.98 62.745C220.657 62.3146 221.454 62.0994 222.371 62.0994C223.086 62.0994 223.73 62.2294 224.301 62.4893C224.876 62.7493 225.347 63.1158 225.714 63.5888C226.084 64.0618 226.319 64.6136 226.417 65.2443ZM228.707 72.0455L228.707 62.2273L230.618 62.2273L230.618 66.3438L231.538 66.3438L234.779 62.2273L237.144 62.2273L233.341 67.0021L237.189 72.0455L234.817 72.0455L231.858 68.1207L230.618 68.1207L230.618 72.0455L228.707 72.0455ZM238.124 63.8764L238.124 62.2273L246.408 62.2273L246.408 63.8764L243.205 63.8764L243.205 72.0455L241.339 72.0455L241.339 63.8764L238.124 63.8764Z" opacity="0" fill="rgb(9,9,9)" fill-rule="nonzero" />
</svg>
